<?xml version="1.0"?>
<svg version="1.1" xmlns="http://www.w3.org/2000/svg" width="235px" height="48px" style="border: dashed 2px #aaa"><path fill="#" d="M16.8,21.4q-2.8,0-4.7,2.025q-1.875,2-1.875,4.875l0,10.7l1.575,0l0-7.85l10.05,0l0,7.85l1.575,0l0-10.7q0-2.875-1.875-4.875q-1.95-2.025-4.75-2.025z M21.85,29.6l-10.05,0l0-1.3q0-2.15,1.45-3.725q1.475-1.6,3.55-1.6t3.6,1.6q1.45,1.575,1.45,3.725l0,1.3z M41.346,21.45l-1.575,0l0,8l-10.55,0l0-8l-1.575,0l0,17.55l1.575,0l0-7.975l10.55,0l0,7.975l1.575,0l0-17.55z M45.317,38.95l1.55,0l0-10.575q0-2.1,1.6-3.7t3.7-1.6q2.05,0,3.7,1.6q1.575,1.575,1.575,3.7l0,10.575l1.6,0l0-10.575q0-2.15,1.6-3.7q1.6-1.6,3.675-1.6q2.1,0,3.7,1.6t1.6,3.7l0,10.575l1.55,0l0-10.575q0-2.85-2-4.85t-4.85-2q-1.875,0-3.525,1.025q-1.675,1.05-2.4,2.675q-0.975-1.675-2.625-2.675q-1.725-1.025-3.6-1.025q-2.825,0-4.825,2q-2.025,2.025-2.025,4.85l0,10.575z M76.513,34.2q0-1.2,0.85-2.175q0.85-1.025,2.05-1.025l0.325,0l4.675,0l0-1.55l-4.675,0l-0.325,0q-1.275-0.25-2.0875-1.1t-0.8125-2.025q0-1.475,0.8625-2.3375t2.3625-0.8625l8.5,0l0-1.575l-8.5,0q-1.925,0-3.35,1.425q-1.425,1.375-1.425,3.35q0,1.25,0.475,2.275t1.4,1.475q-0.925,0.675-1.4,1.775t-0.475,2.35q0,1.95,1.425,3.325q1.45,1.45,3.35,1.45l8.5,0l0-1.65l-8.5,0q-1.5,0-2.3625-0.85t-0.8625-2.275z M96.909,21.475l-3.825,0l-0.95,0l-0.625,0l0,17.525l0.625,0l0.95,0l3.825,0q3.65,0,6.25-2.55q2.675-2.625,2.675-6.375q0-3.55-2.675-6.1q-2.625-2.5-6.25-2.5z M96.909,37.425l-3.825,0l0-14.325l3.825,0q3.125,0,5.25,2.05q2.1,2.05,2.1,4.925q0,3.125-2.1,5.225q-2.125,2.125-5.25,2.125z M129.226,39l2.525,0l-11.175-8.925l11.175-8.6l-2.525,0l-9.6,7.65l0-7.65l-1.575,0l0,17.525l1.575,0l0-7.65z M149.197,21.45l-1.575,0l0,8l-10.55,0l0-8l-1.575,0l0,17.55l1.575,0l0-7.975l10.55,0l0,7.975l1.575,0l0-17.55z M159.693,21.4q-2.8,0-4.7,2.025q-1.875,2-1.875,4.875l0,10.7l1.575,0l0-7.85l10.05,0l0,7.85l1.575,0l0-10.7q0-2.875-1.875-4.875q-1.95-2.025-4.75-2.025z M164.743,29.6l-10.05,0l0-1.3q0-2.15,1.45-3.725q1.475-1.6,3.55-1.6t3.6,1.6q1.45,1.575,1.45,3.725l0,1.3z M170.239,39.05l12.225,0l0-1.275l-10.675,0l0-16.275l-1.55,0l0,17.55z M186.835,34.2q0-1.2,0.85-2.175q0.85-1.025,2.05-1.025l0.325,0l4.675,0l0-1.55l-4.675,0l-0.325,0q-1.275-0.25-2.0875-1.1t-0.8125-2.025q0-1.475,0.8625-2.3375t2.3625-0.8625l8.5,0l0-1.575l-8.5,0q-1.925,0-3.35,1.425q-1.425,1.375-1.425,3.35q0,1.25,0.475,2.275t1.4,1.475q-0.925,0.675-1.4,1.775t-0.475,2.35q0,1.95,1.425,3.325q1.45,1.45,3.35,1.45l8.5,0l0-1.65l-8.5,0q-1.5,0-2.3625-0.85t-0.8625-2.275z M207.231,21.475l-3.825,0l-0.95,0l-0.625,0l0,17.525l0.625,0l0.95,0l3.825,0q3.65,0,6.25-2.55q2.675-2.625,2.675-6.375q0-3.55-2.675-6.1q-2.625-2.5-6.25-2.5z M207.231,37.425l-3.825,0l0-14.325l3.825,0q3.125,0,5.25,2.05q2.1,2.05,2.1,4.925q0,3.125-2.1,5.225q-2.125,2.125-5.25,2.125z"/><path fill="#" d=""/></svg>
